<svg fill="#000000" xmlns="http://www.w3.org/2000/svg"  viewBox="0 0 24 24" width="480px" height="480px"><path d="M 5 3 C 3.898438 3 3 3.898438 3 5 L 3 19 C 3 20.101563 3.898438 21 5 21 L 19 21 C 20.101563 21 21 20.101563 21 19 L 21 5 C 21 3.898438 20.101563 3 19 3 Z M 5.5 7.6875 L 7.8125 7.6875 C 9.613281 7.6875 11 9.011719 11 11.3125 L 11 12.6875 C 11 15.085938 9.6875 16.3125 7.6875 16.3125 L 5.5 16.3125 Z M 7.1875 9.1875 L 7.1875 14.90625 L 7.6875 14.90625 C 8.886719 14.90625 9.3125 14.1875 9.3125 12.6875 L 9.3125 11.40625 C 9.3125 9.507813 8.6875 9.1875 7.6875 9.1875 Z M 11.6875 10 L 13.3125 10 L 13.90625 13.59375 L 14.6875 10 L 15.90625 10 L 16.6875 13.59375 L 17.3125 10 L 18.90625 10 L 17.59375 16.3125 L 16.1875 16.3125 L 15.3125 12.59375 L 14.40625 16.3125 L 13 16.3125 Z"/></svg>