<svg id="visual" viewBox="0 0 1500 270" width="1500" height="270" xmlns="http://www.w3.org/2000/svg" xmlns:xlink="http://www.w3.org/1999/xlink" version="1.1"><path d="M0 54L17.8 79.3C35.7 104.7 71.3 155.3 107 181.8C142.7 208.3 178.3 210.7 214 193.7C249.7 176.7 285.3 140.3 321.2 124.5C357 108.7 393 113.3 428.8 132.8C464.7 152.3 500.3 186.7 536 176.8C571.7 167 607.3 113 643 84.2C678.7 55.3 714.3 51.7 750 60C785.7 68.3 821.3 88.7 857 115.8C892.7 143 928.3 177 964 178.7C999.7 180.3 1035.3 149.7 1071.2 126.3C1107 103 1143 87 1178.8 77.5C1214.7 68 1250.3 65 1286 61.2C1321.7 57.3 1357.3 52.7 1393 69.8C1428.7 87 1464.3 126 1482.2 145.5L1500 165" fill="none" stroke-linecap="round" stroke-linejoin="miter" stroke="#D3E0A4" stroke-width="5"></path></svg>