<?xml version="1.0" standalone="no"?>
<svg xmlns:xlink="http://www.w3.org/1999/xlink" id="wave" style="transform:rotate(0deg); transition: 0.3s" viewBox="0 0 1440 450" version="1.1" xmlns="http://www.w3.org/2000/svg"><defs><linearGradient id="sw-gradient-0" x1="0" x2="0" y1="1" y2="0"><stop stop-color="rgba(211, 224, 164, 1)" offset="0%"/><stop stop-color="rgba(211, 224, 164, 1)" offset="100%"/></linearGradient></defs><path style="transform:translate(0, 0px); opacity:1" fill="url(#sw-gradient-0)" d="M0,0L48,45C96,90,192,180,288,187.5C384,195,480,120,576,97.5C672,75,768,105,864,142.5C960,180,1056,225,1152,202.5C1248,180,1344,90,1440,75C1536,60,1632,120,1728,142.5C1824,165,1920,150,2016,187.5C2112,225,2208,315,2304,345C2400,375,2496,345,2592,322.5C2688,300,2784,285,2880,292.5C2976,300,3072,330,3168,330C3264,330,3360,300,3456,247.5C3552,195,3648,120,3744,105C3840,90,3936,135,4032,142.5C4128,150,4224,120,4320,105C4416,90,4512,90,4608,82.5C4704,75,4800,60,4896,52.5C4992,45,5088,45,5184,52.5C5280,60,5376,75,5472,127.5C5568,180,5664,270,5760,315C5856,360,5952,360,6048,337.5C6144,315,6240,270,6336,232.5C6432,195,6528,165,6624,180C6720,195,6816,255,6864,285L6912,315L6912,450L6864,450C6816,450,6720,450,6624,450C6528,450,6432,450,6336,450C6240,450,6144,450,6048,450C5952,450,5856,450,5760,450C5664,450,5568,450,5472,450C5376,450,5280,450,5184,450C5088,450,4992,450,4896,450C4800,450,4704,450,4608,450C4512,450,4416,450,4320,450C4224,450,4128,450,4032,450C3936,450,3840,450,3744,450C3648,450,3552,450,3456,450C3360,450,3264,450,3168,450C3072,450,2976,450,2880,450C2784,450,2688,450,2592,450C2496,450,2400,450,2304,450C2208,450,2112,450,2016,450C1920,450,1824,450,1728,450C1632,450,1536,450,1440,450C1344,450,1248,450,1152,450C1056,450,960,450,864,450C768,450,672,450,576,450C480,450,384,450,288,450C192,450,96,450,48,450L0,450Z"/><defs><linearGradient id="sw-gradient-1" x1="0" x2="0" y1="1" y2="0"><stop stop-color="rgba(156, 88, 63, 1)" offset="0%"/><stop stop-color="rgba(156, 88, 63, 1)" offset="100%"/></linearGradient></defs><path style="transform:translate(0, 50px); opacity:0.9" fill="url(#sw-gradient-1)" d="M0,180L48,180C96,180,192,180,288,157.5C384,135,480,90,576,97.5C672,105,768,165,864,157.5C960,150,1056,75,1152,82.5C1248,90,1344,180,1440,187.5C1536,195,1632,120,1728,105C1824,90,1920,135,2016,187.5C2112,240,2208,300,2304,270C2400,240,2496,120,2592,97.5C2688,75,2784,150,2880,202.5C2976,255,3072,285,3168,285C3264,285,3360,255,3456,210C3552,165,3648,105,3744,97.5C3840,90,3936,135,4032,187.5C4128,240,4224,300,4320,307.5C4416,315,4512,270,4608,232.5C4704,195,4800,165,4896,165C4992,165,5088,195,5184,195C5280,195,5376,165,5472,180C5568,195,5664,255,5760,270C5856,285,5952,255,6048,270C6144,285,6240,345,6336,330C6432,315,6528,225,6624,195C6720,165,6816,195,6864,210L6912,225L6912,450L6864,450C6816,450,6720,450,6624,450C6528,450,6432,450,6336,450C6240,450,6144,450,6048,450C5952,450,5856,450,5760,450C5664,450,5568,450,5472,450C5376,450,5280,450,5184,450C5088,450,4992,450,4896,450C4800,450,4704,450,4608,450C4512,450,4416,450,4320,450C4224,450,4128,450,4032,450C3936,450,3840,450,3744,450C3648,450,3552,450,3456,450C3360,450,3264,450,3168,450C3072,450,2976,450,2880,450C2784,450,2688,450,2592,450C2496,450,2400,450,2304,450C2208,450,2112,450,2016,450C1920,450,1824,450,1728,450C1632,450,1536,450,1440,450C1344,450,1248,450,1152,450C1056,450,960,450,864,450C768,450,672,450,576,450C480,450,384,450,288,450C192,450,96,450,48,450L0,450Z"/></svg>